<svg width="100" height="100" viewBox="0 0 100 100" fill="none" xmlns="http://www.w3.org/2000/svg">
  <path d="M50 10C51.1046 10 52 9.10457 52 8V2C52 0.895431 51.1046 0 50 0C48.8954 0 48 0.895431 48 2V8C48 9.10457 48.8954 10 50 10Z" fill="currentColor"/>
  <path d="M50 100C51.1046 100 52 99.1046 52 98V92C52 90.8954 51.1046 90 50 90C48.8954 90 48 90.8954 48 92V98C48 99.1046 48.8954 100 50 100Z" fill="currentColor"/>
  <path d="M90 52H98C99.1046 52 100 51.1046 100 50C100 48.8954 99.1046 48 98 48H90C88.8954 48 88 48.8954 88 50C88 51.1046 88.8954 52 90 52Z" fill="currentColor"/>
  <path d="M10 52H2C0.895431 52 0 51.1046 0 50C0 48.8954 0.895431 48 2 48H10C11.1046 48 12 48.8954 12 50C12 51.1046 11.1046 52 10 52Z" fill="currentColor"/>
  
  <path d="M85.3553 85.3553C86.1464 84.5643 86.1464 83.3076 85.3553 82.5165L81.1294 78.2906C80.3383 77.4996 79.0817 77.4996 78.2906 78.2906C77.4996 79.0817 77.4996 80.3383 78.2906 81.1294L82.5165 85.3553C83.3076 86.1464 84.5643 86.1464 85.3553 85.3553Z" fill="currentColor"/>
  <path d="M21.7094 21.7094C22.5004 20.9183 22.5004 19.6617 21.7094 18.8706L17.4835 14.6447C16.6924 13.8536 15.4358 13.8536 14.6447 14.6447C13.8536 15.4358 13.8536 16.6924 14.6447 17.4835L18.8706 21.7094C19.6617 22.5004 20.9183 22.5004 21.7094 21.7094Z" fill="currentColor"/>
  <path d="M85.3553 14.6447C84.5643 13.8536 83.3076 13.8536 82.5165 14.6447L78.2906 18.8706C77.4996 19.6617 77.4996 20.9183 78.2906 21.7094C79.0817 22.5004 80.3383 22.5004 81.1294 21.7094L85.3553 17.4835C86.1464 16.6924 86.1464 15.4358 85.3553 14.6447Z" fill="currentColor"/>
  <path d="M21.7094 78.2906C20.9183 77.4996 19.6617 77.4996 18.8706 78.2906L14.6447 82.5165C13.8536 83.3076 13.8536 84.5643 14.6447 85.3553C15.4358 86.1464 16.6924 86.1464 17.4835 85.3553L21.7094 81.1294C22.5004 80.3383 22.5004 79.0817 21.7094 78.2906Z" fill="currentColor"/>
  
  <!-- Diagonal teeth at 22.5 degree increments -->
  <path d="M77.7817 29.2899C78.3797 28.3471 78.1002 27.1266 77.1574 26.5286L70.7107 22.5C69.7679 21.902 68.5474 22.1815 67.9494 23.1243C67.3514 24.0671 67.6309 25.2876 68.5737 25.8856L75.0204 29.9142C75.9632 30.5122 77.1837 30.2327 77.7817 29.2899Z" fill="currentColor"/>
  <path d="M32.0506 76.8757C32.6486 75.9329 32.3691 74.7124 31.4263 74.1144L24.9796 70.0858C24.0368 69.4878 22.8163 69.7673 22.2183 70.7101C21.6203 71.6529 21.8998 72.8734 22.8426 73.4714L29.2893 77.5C30.2321 78.098 31.4526 77.8185 32.0506 76.8757Z" fill="currentColor"/>
  <path d="M70.7101 77.5C71.6529 78.098 72.8734 77.8185 73.4714 76.8757C74.0694 75.9329 73.7899 74.7124 72.8471 74.1144L66.4004 70.0858C65.4576 69.4878 64.2371 69.7673 63.6391 70.7101C63.0411 71.6529 63.3206 72.8734 64.2634 73.4714L70.7101 77.5Z" fill="currentColor"/>
  <path d="M29.2899 22.5C28.3471 21.902 27.1266 22.1815 26.5286 23.1243C25.9306 24.0671 26.2101 25.2876 27.1529 25.8856L33.5996 29.9142C34.5424 30.5122 35.7629 30.2327 36.3609 29.2899C36.9589 28.3471 36.6794 27.1266 35.7366 26.5286L29.2899 22.5Z" fill="currentColor"/>
  
  <!-- More teeth at 45 degree increments -->
  <path d="M65.9099 14.5C64.8053 14.5 63.9099 15.3954 63.9099 16.5V21.5C63.9099 22.6046 64.8053 23.5 65.9099 23.5C67.0145 23.5 67.9099 22.6046 67.9099 21.5V16.5C67.9099 15.3954 67.0145 14.5 65.9099 14.5Z" fill="currentColor"/>
  <path d="M34.0901 76.5C32.9855 76.5 32.0901 77.3954 32.0901 78.5V83.5C32.0901 84.6046 32.9855 85.5 34.0901 85.5C35.1947 85.5 36.0901 84.6046 36.0901 83.5V78.5C36.0901 77.3954 35.1947 76.5 34.0901 76.5Z" fill="currentColor"/>
  <path d="M83.5 34.0901C84.6046 34.0901 85.5 33.1947 85.5 32.0901C85.5 30.9855 84.6046 30.0901 83.5 30.0901H78.5C77.3954 30.0901 76.5 30.9855 76.5 32.0901C76.5 33.1947 77.3954 34.0901 78.5 34.0901H83.5Z" fill="currentColor"/>
  <path d="M21.5 67.9099C22.6046 67.9099 23.5 67.0145 23.5 65.9099C23.5 64.8053 22.6046 63.9099 21.5 63.9099H16.5C15.3954 63.9099 14.5 64.8053 14.5 65.9099C14.5 67.0145 15.3954 67.9099 16.5 67.9099H21.5Z" fill="currentColor"/>
  
  <!-- Center gear body -->
  <circle cx="50" cy="50" r="20" stroke="currentColor" stroke-width="4" fill="currentColor"/>
  <circle cx="50" cy="50" r="8" fill="currentColor" stroke="currentColor" stroke-width="2"/>
</svg> 