<svg width="100" height="100" viewBox="0 0 100 100" fill="none" xmlns="http://www.w3.org/2000/svg">
  <path fill-rule="evenodd" clip-rule="evenodd" d="M50 15C51.3807 15 52.5 13.8807 52.5 12.5V5C52.5 3.61929 51.3807 2.5 50 2.5C48.6193 2.5 47.5 3.61929 47.5 5V12.5C47.5 13.8807 48.6193 15 50 15Z" fill="currentColor"/>
  <path fill-rule="evenodd" clip-rule="evenodd" d="M50 97.5C51.3807 97.5 52.5 96.3807 52.5 95V87.5C52.5 86.1193 51.3807 85 50 85C48.6193 85 47.5 86.1193 47.5 87.5V95C47.5 96.3807 48.6193 97.5 50 97.5Z" fill="currentColor"/>
  <path fill-rule="evenodd" clip-rule="evenodd" d="M85 52.5H87.5H95C96.3807 52.5 97.5 51.3807 97.5 50C97.5 48.6193 96.3807 47.5 95 47.5H87.5H85C83.6193 47.5 82.5 48.6193 82.5 50C82.5 51.3807 83.6193 52.5 85 52.5Z" fill="currentColor"/>
  <path fill-rule="evenodd" clip-rule="evenodd" d="M15 52.5H12.5H5C3.61929 52.5 2.5 51.3807 2.5 50C2.5 48.6193 3.61929 47.5 5 47.5H12.5H15C16.3807 47.5 17.5 48.6193 17.5 50C17.5 51.3807 16.3807 52.5 15 52.5Z" fill="currentColor"/>
  <path fill-rule="evenodd" clip-rule="evenodd" d="M73.0331 26.9669C74.0232 26.9669 74.9741 26.4906 75.5983 25.6593L80.5983 18.8254C81.5358 17.519 81.2349 15.6713 79.9286 14.7338C78.6222 13.7963 76.7745 14.0972 75.837 15.4036L70.837 22.2374C69.8995 23.5438 70.2004 25.3915 71.5068 26.329C71.9729 26.6575 72.4958 26.9669 73.0331 26.9669Z" fill="currentColor"/>
  <path fill-rule="evenodd" clip-rule="evenodd" d="M26.9669 73.0331C27.957 73.0331 28.9079 73.5094 29.5321 74.3407L34.5321 81.1746C35.4696 82.481 35.1687 84.3287 33.8623 85.2662C32.5559 86.2037 30.7082 85.9028 29.7707 84.5964L24.7707 77.7626C23.8332 76.4562 24.1341 74.6085 25.4405 73.671C25.9066 73.3425 26.4296 73.0331 26.9669 73.0331Z" fill="currentColor"/>
  <path fill-rule="evenodd" clip-rule="evenodd" d="M73.0331 73.0331C72.0429 73.0331 71.092 73.5094 70.4678 74.3407L65.4678 81.1746C64.5303 82.481 64.8312 84.3287 66.1376 85.2662C67.444 86.2037 69.2917 85.9028 70.2292 84.5964L75.2292 77.7626C76.1667 76.4562 75.8658 74.6085 74.5594 73.671C74.0933 73.3425 73.5704 73.0331 73.0331 73.0331Z" fill="currentColor"/>
  <path fill-rule="evenodd" clip-rule="evenodd" d="M26.9669 26.9669C25.9767 26.9669 25.0258 26.4906 24.4016 25.6593L19.4016 18.8254C18.4641 17.519 18.765 15.6713 20.0714 14.7338C21.3778 13.7963 23.2255 14.0972 24.163 15.4036L29.163 22.2374C30.1004 23.5438 29.7995 25.3915 28.4932 26.329C28.027 26.6575 27.5041 26.9669 26.9669 26.9669Z" fill="currentColor"/>
  <circle cx="50" cy="50" r="25" fill="currentColor"/>
</svg> 